<svg xmlns="http://www.w3.org/2000/svg" xml:space="preserve" id="Capa_1" x="0" y="0" style="enable-background:new 0 0 32 32" version="1.1" viewBox="0 0 32 32"><style>.st2{fill:#fff}</style><circle cx="16" cy="16" r="16" style="fill:#eb5962"/><path d="m5.15 13.73 3.94-3.94 1.97-1.97.03-.03c.01-.01.02-.02.03-.02.01-.01.02-.02.03-.02.01-.01.02-.02.03-.02.01-.01.02-.01.03-.02.01-.01.02-.01.03-.02.01-.01.02-.01.03-.02.01-.01.02-.01.03-.02.01-.01.02-.01.03-.02.01-.01.02-.01.03-.02.01-.01.02-.01.03-.02.01-.01.02-.01.03-.02.01-.01.02-.01.03-.02.01-.01.02-.01.03-.01.01 0 .02-.01.03-.01.01 0 .02-.01.03-.01.01 0 .02-.01.03-.01.01 0 .02-.01.03-.01.01 0 .02-.01.03-.01.01 0 .02-.01.03-.01.01 0 .02-.01.03-.01.01 0 .02-.01.03-.01.01 0 .02-.01.03-.01.01 0 .02 0 .03-.01.01 0 .02 0 .03-.01.01 0 .02 0 .03-.01H12.2c.01 0 .02 0 .03.01.01 0 .02 0 .03.01.01 0 .02 0 .03.01.01 0 .02 0 .03.01.01 0 .02.01.03.01.01 0 .02.01.03.01.01 0 .02.01.03.01.01 0 .02.01.03.01.01 0 .02.01.03.01.01 0 .02.01.03.01.01 0 .02.01.03.01.01 0 .02.01.03.01.01 0 .02.01.03.01.01.01.02.01.03.02.01.01.02.01.03.02.01.01.02.01.03.02.01.01.02.01.03.02.01.01.02.01.03.02.01.01.02.01.03.02.01.01.02.01.03.02.01.01.02.01.03.02.01.01.02.01.03.02.01.01.02.01.03.02.01.01.02.02.03.02.01.01.02.02.03.02l.03.03 1.97 1.97 1.05.98.99-.99 1.97-1.97.03-.03c.01-.01.02-.02.03-.02.01-.01.02-.02.03-.02.01-.01.02-.02.03-.02.01-.01.02-.01.03-.02.01-.01.02-.01.03-.02.01-.01.02-.01.03-.02.01-.01.02-.01.03-.02.01-.01.02-.01.03-.02.01-.01.02-.01.03-.02.01-.01.02-.01.03-.02.01-.01.02-.01.03-.02.01-.01.02-.01.03-.02.01-.01.02-.01.03-.01.01 0 .02-.01.03-.01.01 0 .02-.01.03-.01.01 0 .02-.01.03-.01.01 0 .02-.01.03-.01.01 0 .02-.01.03-.01.01 0 .02-.01.03-.01.01 0 .02-.01.03-.01.01 0 .02-.01.03-.01.01 0 .02-.01.03-.01.01 0 .02 0 .03-.01.01 0 .02 0 .03-.01.01 0 .02 0 .03-.01H20.1c.01 0 .02 0 .03.01.01 0 .02 0 .03.01.01 0 .02 0 .03.01.01 0 .02 0 .03.01.01 0 .02.01.03.01.01 0 .02.01.03.01.01 0 .02.01.03.01.01 0 .02.01.03.01.01 0 .02.01.03.01.01 0 .02.01.03.01.01 0 .02.01.03.01.01 0 .02.01.03.01.01 0 .02.01.03.01.01.01.02.01.03.02.01.01.02.01.03.02.01.01.02.01.03.02.01.01.02.01.03.02.01.01.02.01.03.02.01.01.02.01.03.02.01.01.02.01.03.02.01.01.02.01.03.02.01.01.02.01.03.02.01.01.02.01.03.02.01.01.02.02.03.02.01.01.02.02.03.02l.03.03 1.97 1.97 3.94 3.94a1.4 1.4 0 0 1 0 1.97l-1.97 1.97a1.4 1.4 0 0 1-1.97 0l-2.96-2.96-2.96 2.96a1.4 1.4 0 0 1-1.97 0l-1.97-1.97-.99-.99-2.96 2.96a1.4 1.4 0 0 1-1.97 0L5.15 15.7a1.4 1.4 0 0 1 0-1.97" style="fill-rule:evenodd;clip-rule:evenodd;fill:#fff"/><path d="M12.21 22.51c-.1.52-.5.95-.9.95s-.63-.42-.53-.95c.1-.52.5-.95.9-.95.39 0 .63.42.53.95m-.52-1.59c-.9 0-1.72.71-1.83 1.59-.11.88.54 1.59 1.44 1.59.9 0 1.72-.71 1.83-1.59.1-.88-.54-1.59-1.44-1.59zM18.16 19.91l-.68 4.14h.93l.67-4.14zM17.17 19.86c-.26 0-.46.19-.46.43s.21.43.46.43c.26 0 .46-.19.46-.43.01-.24-.2-.43-.46-.43M19.31 21.22l-.48 2.83h.93l.37-2.23c.19-.15.57-.22.78-.06.15.15.09.39.07.57l-.29 1.71h.94l.33-1.99c.24-1.43-1.76-1.26-2.65-.83M26.77 23.4c-.42 0-.33-.41-.29-.73l.17-1.14h.44l.1-.69h-.44l.14-.91-.94.23-.42 2.87c-.21 1.17.89 1.15 1.63.98l.1-.7c-.16.05-.27.07-.49.09M15.38 21.07c-.3.66-.62 1.31-.92 1.97-.1-.66-.19-1.31-.28-1.97h-.97c.18 1 .37 1.99.57 2.98h1.01c.51-1 1.03-1.99 1.54-2.98h-.95zM7.5 21.09c-.56-.4-1.68-.1-2.29.19l-.47 2.77h.91l.36-2.18c.19-.15.56-.21.76-.06.11.11.1.24.09.38l-.3 1.85h.94l.35-2.18c.19-.15.56-.21.76-.06.12.1.1.29.09.38l-.3 1.86h.92l.33-1.95c.26-1.4-1.29-1.28-2.15-1M24.4 22.06v.07h-1.18l.02-.07c.07-.28.32-.47.58-.53.3-.06.61.08.58.53m-.59-1.12c-.38.05-.76.21-1.06.47-.51.49-.77 1.24-.47 1.9.35.62.97.8 1.53.78.4-.01.76-.12.98-.23l.1-.68c-.27.13-.71.24-1.08.22-.41-.02-.74-.21-.69-.7h2.15c.04-.25.08-.49.09-.74-.04-.79-.78-1.12-1.55-1.02zM16.62 21.07l-.49 2.98h.92l.49-2.98h-.46z" class="st2"/></svg>